<svg xmlns="http://www.w3.org/2000/svg" viewBox="0 0 64 64" xml:space="preserve" style="fill-rule:evenodd;clip-rule:evenodd;stroke-linecap:round;stroke-linejoin:round;stroke-miterlimit:2"><path d="M38.5 47H31M17 47H9.5A1.503 1.503 0 0 0 8 48.5 1.5 1.5 0 0 0 9.5 50h44.97A1.53 1.53 0 0 0 56 48.47v-.002c0-.811-.657-1.468-1.468-1.468H48.5M14 47v-5" style="fill:none;stroke:#222a33;stroke-width:1.5px"/><path d="M54 47V20.238A3.24 3.24 0 0 0 50.762 17H13.238A3.24 3.24 0 0 0 10 20.238V47M21 13.242A1.239 1.239 0 0 0 19.758 12h-3.516A1.239 1.239 0 0 0 15 13.242V17h6v-3.758zM49 17v-3.758A1.239 1.239 0 0 0 47.758 12h-3.516c-.686 0-1.242.556-1.242 1.241V14M16 22h3M45 22h3M46.5 20.5v3" style="fill:none;stroke:#222a33;stroke-width:1.5px"/><path d="M31.174 35.169a2.655 2.655 0 0 0 1.652 0l4.011 4.289A8.32 8.32 0 0 1 32 41a8.32 8.32 0 0 1-4.837-1.542l4.011-4.289zM25.779 33.166l-2.091.375a8.365 8.365 0 0 1 4.851-8.512l1.763 5.564a2.66 2.66 0 0 0-.96 1.934M34.757 27.251l.704-2.222a8.365 8.365 0 0 1 4.851 8.512l-5.654-1.014a2.66 2.66 0 0 0-.96-1.934M14 38v-2" style="fill:none;stroke:#222a33;stroke-width:1.5px"/></svg>